<svg width="288" height="185" viewBox="0 0 288 185" fill="none" xmlns="http://www.w3.org/2000/svg">
<rect x="0.5" y="0.5" width="287" height="184" rx="19.5" fill="#FFE1F7"/>
<rect x="0.5" y="0.5" width="287" height="184" rx="19.5" stroke="#E775C6"/>
<rect x="12" y="12" width="29" height="161" rx="10" fill="url(#paint0_linear_56_33)"/>
<rect x="54" y="12" width="66" height="74" rx="10" fill="url(#paint1_linear_56_33)"/>
<rect x="53" y="99" width="74" height="74" rx="37" fill="url(#paint2_linear_56_33)"/>
<rect x="132" y="12" width="66" height="74" rx="10" fill="url(#paint3_linear_56_33)"/>
<rect x="210" y="12" width="66" height="74" rx="10" fill="url(#paint4_linear_56_33)"/>
<rect x="139" y="98" width="137" height="75" rx="10" fill="url(#paint5_linear_56_33)"/>
<defs>
<linearGradient id="paint0_linear_56_33" x1="13.5876" y1="12" x2="36.8077" y2="14.3445" gradientUnits="userSpaceOnUse">
<stop stop-color="#FCB7E9"/>
<stop offset="1" stop-color="#F6CDEA"/>
</linearGradient>
<linearGradient id="paint1_linear_56_33" x1="57.6131" y1="12" x2="100.322" y2="33.3525" gradientUnits="userSpaceOnUse">
<stop stop-color="#FCB7E9"/>
<stop offset="1" stop-color="#F6CDEA"/>
</linearGradient>
<linearGradient id="paint2_linear_56_33" x1="57.0511" y1="99" x2="102.596" y2="124.53" gradientUnits="userSpaceOnUse">
<stop stop-color="#FCB7E9"/>
<stop offset="1" stop-color="#F6CDEA"/>
</linearGradient>
<linearGradient id="paint3_linear_56_33" x1="135.613" y1="12" x2="178.322" y2="33.3525" gradientUnits="userSpaceOnUse">
<stop stop-color="#FCB7E9"/>
<stop offset="1" stop-color="#F6CDEA"/>
</linearGradient>
<linearGradient id="paint4_linear_56_33" x1="213.613" y1="12" x2="256.322" y2="33.3525" gradientUnits="userSpaceOnUse">
<stop stop-color="#FCB7E9"/>
<stop offset="1" stop-color="#F6CDEA"/>
</linearGradient>
<linearGradient id="paint5_linear_56_33" x1="146.5" y1="98" x2="200.596" y2="153.391" gradientUnits="userSpaceOnUse">
<stop stop-color="#FCB7E9"/>
<stop offset="1" stop-color="#F6CDEA"/>
</linearGradient>
</defs>
</svg>
